#!OML:ASF F:\VICON\USERDATA\INSTALL\rory3\rory3.ASF
:FULLY-SPECIFIED
:DEGREES
1016
root 0.0284436 17.9367 -2.86744 -0.671235 31.9198 -2.49096
lowerback 14.2994 -9.31758 -8.3151
upperback 4.46759 -13.2632 5.05613
thorax 0.0792447 -6.90492 11.5615
lowerneck -16.6829 -4.23598 -13.2635
upperneck 28.2185 -4.88498 9.18441
head 12.7334 -2.42338 5.05881
rclavicle -5.83433e-014 2.8625e-014
rhumerus -49.3465 -12.6812 -35.0584
rradius 59.9845
rwrist 23.1987
rhand -24.3784 9.58867
rfingers 7.12502
rthumb 2.11186 -20.3806
lclavicle -5.83433e-014 2.8625e-014
lhumerus 25.2792 -11.4337 63.3449
lradius 59.1022
lwrist -5.96509
lhand -16.8198 14.1234
lfingers 7.12502
lthumb 9.40921 43.8934
rfemur -74.3122 6.04723 20.8507
rtibia 99.1676
rfoot 2.73183 -6.79574
rtoes 11.4786
lfemur -10.6694 9.67638 -20.9181
ltibia 25.3595
lfoot -11.1257 -17.8955
ltoes -7.8651
1017
root 0.0399904 17.9231 -2.85209 -0.372493 31.379 -2.29833
lowerback 13.8124 -9.18509 -8.25011
upperback 4.3396 -13.0595 5.00983
thorax 0.117883 -6.79588 11.3853
lowerneck -16.6715 -4.18707 -13.2436
upperneck 28.0045 -4.73657 8.9504
head 12.617 -2.38021 4.97601
rclavicle -1.02722e-013 2.74323e-014
rhumerus -48.7574 -12.3253 -35.1942
rradius 60.5301
rwrist 23.3052
rhand -24.5645 9.19967
rfingers 7.12502
rthumb 1.93221 -20.7713
lclavicle -1.02722e-013 2.74323e-014
lhumerus 23.9284 -10.912 63.7846
lradius 59.4321
lwrist -5.87394
lhand -17.073 14.3139
lfingers 7.12502
lthumb 9.16494 44.0947
rfemur -72.3928 5.2923 21.2339
rtibia 98.4266
rfoot 2.30863 -7.19718
rtoes 10.7388
lfemur -10.9453 9.69719 -21.1281
ltibia 25.7685
lfoot -11.3606 -17.5663
ltoes -7.28741
1018
root 0.0482124 17.9097 -2.83009 -0.109719 30.868 -2.0903
lowerback 13.3825 -9.04343 -8.2144
upperback 4.16313 -12.8518 4.94128
thorax 0.0761208 -6.67755 11.2201
lowerneck -16.7168 -4.12252 -13.1162
upperneck 27.928 -4.57368 8.6354
head 12.5618 -2.3307 4.85084
rclavicle -3.42904e-015 2.04748e-014
rhumerus -48.2733 -11.88 -35.3331
rradius 61.1056
rwrist 23.4013
rhand -24.6122 8.73304
rfingers 7.12502
rthumb 1.88614 -21.2384
lclavicle -3.42904e-015 2.04748e-014
lhumerus 22.3893 -10.4933 64.1947
lradius 59.871
lwrist -5.79103
lhand -17.616 15.2313
lfingers 7.12502
lthumb 8.64093 45.0344
rfemur -70.3991 4.4615 21.5803
rtibia 97.6092
rfoot 1.7703 -7.59171
rtoes 10.6292
lfemur -11.1788 9.81297 -21.3099
ltibia 26.1789
lfoot -11.4886 -17.3905
ltoes -6.51623
1019
root 0.0531495 17.9047 -2.80419 0.144912 30.3 -1.92556
lowerback 12.8909 -8.84904 -8.15775
upperback 3.99399 -12.5675 4.87307
thorax 0.0538439 -6.52188 11.0304
lowerneck -16.9142 -4.11197 -13.1167
upperneck 28.0181 -4.50538 8.54203
head 12.6284 -2.30979 4.82816
rclavicle 5.46658e-015 8.15017e-015
rhumerus -47.863 -11.5278 -35.3737
rradius 61.5842
rwrist 23.56
rhand -24.6023 8.7298
rfingers 7.12502
rthumb 1.89566 -21.2415
lclavicle 5.46658e-015 8.15017e-015
lhumerus 20.9086 -10.1909 64.5804
lradius 60.2905
lwrist -5.64677
lhand -17.7352 15.526
lfingers 7.12502
lthumb 8.52593 45.3338
rfemur -68.3204 3.75301 21.8432
rtibia 96.6246
rfoot 0.973599 -8.04597
rtoes 11.8499
lfemur -11.4144 10.0577 -21.4315
ltibia 26.5708
lfoot -11.5664 -17.2861
ltoes -5.91706
1020
root 0.0670256 17.896 -2.79067 0.217072 29.5862 -1.73905
lowerback 12.6522 -8.58956 -7.96883
upperback 3.91509 -12.1901 4.73688
thorax -0.0717726 -6.31158 10.7352
lowerneck -17.1187 -4.13491 -13.153
upperneck 27.9837 -4.49283 8.5313
head 12.6567 -2.30441 4.83069
rclavicle -1.19271e-014 -6.36111e-015
rhumerus -47.4198 -11.338 -35.4451
rradius 62.0106
rwrist 23.7762
rhand -24.7003 8.80828
rfingers 7.12502
rthumb 1.801 -21.1639
lclavicle -1.19271e-014 -6.36111e-015
lhumerus 19.5491 -9.84167 64.9287
lradius 60.6711
lwrist -5.54962
lhand -17.5763 15.5206
lfingers 7.12502
lthumb 8.67922 45.3222
rfemur -66.064 3.08099 21.9732
rtibia 95.4876
rfoot 0.274308 -8.43007
rtoes 13.2827
lfemur -11.4471 10.1753 -21.6135
ltibia 26.9376
lfoot -11.6912 -16.8923
ltoes -5.76003
1021
root 0.0786612 17.8851 -2.77275 0.432688 28.9257 -1.68539
lowerback 12.1446 -8.38131 -7.6832
upperback 3.80335 -11.8568 4.64645
thorax -0.0825779 -6.12997 10.3911
lowerneck -17.1664 -4.11846 -13.0569
upperneck 27.805 -4.4518 8.42974
head 12.5834 -2.28367 4.77293
rclavicle 5.81942e-014 -2.16675e-014
rhumerus -47.0314 -11.0779 -35.5899
rradius 62.5733
rwrist 23.8289
rhand -24.6985 8.9667
rfingers 7.12502
rthumb 1.80272 -21.0054
lclavicle 5.81942e-014 -2.16675e-014
lhumerus 18.0834 -9.50908 65.1782
lradius 61.1084
lwrist -5.42831
lhand -17.6404 16.0354
lfingers 7.12502
lthumb 8.61734 45.8395
rfemur -64.0614 2.35049 22.2409
rtibia 94.2735
rfoot -0.326298 -8.78031
rtoes 13.6381
lfemur -11.707 10.214 -21.6894
ltibia 27.274
lfoot -11.887 -16.486
ltoes -5.97234
1022
root 0.089772 17.8767 -2.75215 0.714766 28.3288 -1.56523
lowerback 11.6634 -8.19679 -7.49088
upperback 3.60399 -11.5708 4.58655
thorax -0.157926 -5.96847 10.1478
lowerneck -17.2142 -4.07353 -12.9461
upperneck 27.7285 -4.34349 8.21266
head 12.54 -2.24823 4.6818
rclavicle 4.01048e-014 -7.35503e-015
rhumerus -46.651 -10.6028 -35.7372
rradius 63.2645
rwrist 23.6874
rhand -24.6964 9.03071
rfingers 7.12502
rthumb 1.80474 -20.9414
lclavicle 4.01048e-014 -7.35503e-015
lhumerus 16.3411 -9.06953 65.553
lradius 61.5589
lwrist -5.37082
lhand -17.7852 15.9758
lfingers 7.12502
lthumb 8.47761 45.7856
rfemur -62.0906 1.45944 22.4671
rtibia 92.99
rfoot -0.825313 -9.06345
rtoes 12.896
lfemur -11.9472 10.0949 -21.8
ltibia 27.6056
lfoot -12.0502 -16.1411
ltoes -5.94076
1023
root 0.100993 17.8706 -2.7298 0.94508 27.7419 -1.31848
lowerback 11.3021 -7.96954 -7.36851
upperback 3.42911 -11.2424 4.47744
thorax -0.273542 -5.78455 9.90886
lowerneck -17.4117 -4.0756 -12.9308
upperneck 27.7418 -4.28987 8.10384
head 12.5769 -2.23273 4.64492
rclavicle 1.21905e-013 -3.65764e-014
rhumerus -46.2475 -10.2332 -35.857
rradius 63.8728
rwrist 23.5926
rhand -24.9047 8.94623
rfingers 7.12502
rthumb 1.6036 -21.0275
lclavicle 1.21905e-013 -3.65764e-014
lhumerus 14.6402 -8.57094 65.9403
lradius 61.9795
lwrist -5.50217
lhand -17.737 15.5628
lfingers 7.12502
lthumb 8.52412 45.3708
rfemur -59.9796 0.499268 22.4936
rtibia 91.6257
rfoot -1.32627 -9.34873
rtoes 12.6779
lfemur -12.0104 9.89747 -21.9936
ltibia 27.9079
lfoot -12.1409 -15.815
ltoes -5.25745
1024
root 0.110448 17.8601 -2.70623 1.19815 27.0947 -1.03563
lowerback 10.8918 -7.68118 -7.31794
upperback 3.2806 -10.8383 4.36393
thorax -0.333709 -5.56825 9.69122
lowerneck -17.5959 -4.08712 -12.8811
upperneck 27.7109 -4.26138 7.99827
head 12.5956 -2.22357 4.59768
rclavicle 1.02374e-013 -4.49253e-014
rhumerus -45.8867 -9.99857 -35.9222
rradius 64.3704
rwrist 23.6402
rhand -25.3492 8.96701
rfingers 7.12502
rthumb 1.17432 -21.0095
lclavicle 1.02374e-013 -4.49253e-014
lhumerus 13.1342 -8.20349 66.2593
lradius 62.3145
lwrist -5.61499
lhand -17.7948 15.7306
lfingers 7.12502
lthumb 8.46834 45.5408
rfemur -57.9423 -0.41599 22.4095
rtibia 90.1862
rfoot -1.88574 -9.75631
rtoes 12.1631
lfemur -12.0446 9.79469 -22.2194
ltibia 28.071
lfoot -12.3013 -15.6223
ltoes -4.07224
1025
root 0.120648 17.853 -2.68209 1.44149 26.3925 -0.860084
lowerback 10.3434 -7.38034 -7.1522
upperback 3.16217 -10.3979 4.25665
thorax -0.310966 -5.33839 9.39228
lowerneck -17.7789 -4.06908 -12.699
upperneck 27.6531 -4.19316 7.76897
head 12.5913 -2.19791 4.48405
rclavicle 1.41535e-013 -4.41302e-014
rhumerus -45.4885 -9.92216 -35.9894
rradius 64.7506
rwrist 23.8005
rhand -25.8693 9.52175
rfingers 7.12502
rthumb 0.671982 -20.4569
lclavicle 1.41535e-013 -4.41302e-014
lhumerus 11.6604 -7.95463 66.4935
lradius 62.6543
lwrist -5.51823
lhand -17.7322 15.7069
lfingers 7.12502
lthumb 8.52881 45.5146
rfemur -55.9337 -1.24424 22.3682
rtibia 88.591
rfoot -2.87886 -10.3056
rtoes 10.2086
lfemur -12.1189 9.7327 -22.3409
ltibia 28.1672
lfoot -12.3419 -15.5344
ltoes -2.4206
